#N canvas 783 175 1043 722 10;
#X obj 11 -148 netreceive 17435;
#X obj -61 -131 print tcp;
#X floatatom 104 -117 5 0 0 0 - - -;
#X obj 11 -47 dsp;
#X obj 11 -82 tgl 30 0 empty empty ON-OFF 0 -7 0 10 -262144 -1 -1 0
1;
#X obj -2 206 dac~;
#X obj 86 -54 unpack s s s s s;
#X obj -37 29 symbol2list +;
#X obj -3 80 symbol2list -;
#X obj -37 53 unpack s s s;
#X obj 142 154 *~ 0.5;
#X text 10 11 Player;
#X obj 109 29 symbol2list +;
#X obj 143 80 symbol2list -;
#X obj 109 53 unpack s s s;
#X obj 232 29 symbol2list +;
#X obj 266 80 symbol2list -;
#X obj 232 53 unpack s s s;
#X obj 352 29 symbol2list +;
#X obj 386 80 symbol2list -;
#X obj 352 53 unpack s s s;
#X obj 472 29 symbol2list +;
#X obj 506 80 symbol2list -;
#X obj 472 53 unpack s s s;
#X text 117 12 Channel #1;
#X text 237 12 Channel #2;
#X text 357 12 Channel #3;
#X text 477 12 Channel #4;
#X text 117 -8 Backtrack;
#X obj 143 102 channels;
#X obj -3 102 channels;
#X obj 266 102 channels;
#X obj 386 102 channels;
#X obj 506 102 channels;
#X obj 11 -115 OSCroute /dsp;
#X connect 0 0 1 0;
#X connect 0 0 34 0;
#X connect 0 1 2 0;
#X connect 4 0 3 0;
#X connect 6 0 7 0;
#X connect 6 1 12 0;
#X connect 6 2 15 0;
#X connect 6 3 18 0;
#X connect 6 4 21 0;
#X connect 7 0 9 0;
#X connect 8 0 30 0;
#X connect 9 1 8 0;
#X connect 9 2 8 0;
#X connect 10 0 5 1;
#X connect 10 0 5 0;
#X connect 12 0 14 0;
#X connect 13 0 29 0;
#X connect 14 1 13 0;
#X connect 14 2 13 0;
#X connect 15 0 17 0;
#X connect 16 0 31 0;
#X connect 17 1 16 0;
#X connect 17 2 16 0;
#X connect 18 0 20 0;
#X connect 19 0 32 0;
#X connect 20 1 19 0;
#X connect 20 2 19 0;
#X connect 21 0 23 0;
#X connect 22 0 33 0;
#X connect 23 1 22 0;
#X connect 23 2 22 0;
#X connect 29 0 10 0;
#X connect 30 0 5 1;
#X connect 30 0 5 0;
#X connect 31 0 10 0;
#X connect 32 0 10 0;
#X connect 33 0 10 0;
#X connect 34 0 4 0;
#X connect 34 1 6 0;
