#N canvas 451 342 510 421 10;
#X obj 51 142 phasor~;
#X obj 51 166 -~ 0.5;
#X obj 52 190 abs~;
#X obj 51 238 -~ 1;
#X obj 51 214 *~ 4;
#X floatatom 51 119 5 0 0 2 frequency - -;
#X obj 51 325 outlet~;
#X obj 51 83 inlet freq;
#X connect 0 0 1 0;
#X connect 1 0 2 0;
#X connect 2 0 4 0;
#X connect 3 0 6 0;
#X connect 4 0 3 0;
#X connect 5 0 0 0;
#X connect 7 0 5 0;
