#N canvas 1005 275 450 300 10;
#X obj 75 43 netreceive 17435;
#X floatatom 168 74 5 0 0 0 - - -;
#X floatatom 75 147 5 0 0 0 - - -;
#X obj 75 183 osc~;
#X obj 75 227 dac~;
#X obj 8 75 print tcp;
#X obj 130 148 tgl 15 0 empty empty empty 17 7 0 10 -262144 -1 -1 0
1;
#X obj 130 183 dsp;
#X obj 75 107 OSCroute /freq /dsp;
#X connect 0 0 5 0;
#X connect 0 0 8 0;
#X connect 0 1 1 0;
#X connect 2 0 3 0;
#X connect 3 0 4 0;
#X connect 3 0 4 1;
#X connect 6 0 7 0;
#X connect 8 0 2 0;
#X connect 8 1 6 0;
