#N canvas 943 181 450 555 10;
#X obj 50 -17 hsl 128 15 0 6 0 0 empty empty empty -2 -8 0 10 -262144
-1 -1 12700 1;
#X obj 124 120 int;
#X obj 201 182 bng 15 250 50 0 empty empty empty 17 7 0 10 -262144
-1 -1;
#X floatatom 248 1 5 0 0 0 - - -;
#X obj 248 28 int;
#X floatatom 258 61 5 0 0 0 - - -;
#X obj 178 118 spigot;
#X floatatom 201 150 5 0 0 0 - - -;
#X obj 141 211 float;
#X floatatom 141 271 5 0 0 0 - - -;
#X obj 305 90 -;
#X floatatom 257 106 5 0 0 0 - - -;
#X obj 260 136 < 0.05;
#X floatatom 112 404 5 0 0 0 - - -;
#X obj 111 336 >;
#X floatatom 82 203 5 0 0 0 - - -;
#X obj 279 233 bng 15 250 50 0 empty empty empty 17 7 0 10 -262144
-1 -1;
#X floatatom 308 312 5 1 256 0 - - -;
#X obj 308 279 +;
#X obj 309 342 \$0 num;
#X obj 212 403 \$0;
#X floatatom 210 442 5 0 0 0 - - -;
#X obj 51 120 int;
#X connect 0 0 1 0;
#X connect 0 0 3 0;
#X connect 0 0 22 0;
#X connect 1 0 8 1;
#X connect 2 0 8 0;
#X connect 3 0 4 0;
#X connect 3 0 10 0;
#X connect 4 0 5 0;
#X connect 5 0 10 1;
#X connect 6 0 7 0;
#X connect 7 0 2 0;
#X connect 8 0 9 0;
#X connect 9 0 14 1;
#X connect 10 0 11 0;
#X connect 11 0 12 0;
#X connect 12 0 6 0;
#X connect 12 0 6 1;
#X connect 14 0 13 0;
#X connect 15 0 14 0;
#X connect 16 0 18 0;
#X connect 16 0 19 0;
#X connect 16 0 20 1;
#X connect 17 0 19 0;
#X connect 20 0 21 0;
#X connect 22 0 15 0;
