#N canvas 493 323 591 442 10;
#X floatatom 225 150 5 0 0 0 - - -;
#X obj 112 225 spigot;
#X floatatom 112 203 5 0 0 0 note_1 - -;
#X obj 228 97 hsl 128 15 0 10 0 0 empty \$0-selector selector -2 -8
0 10 -262144 -1 -1 7700 0;
#X floatatom 56 242 5 0 0 0 - - -;
#X obj 112 181 == 5;
#X obj 225 226 spigot;
#X floatatom 225 204 5 0 0 0 note_2 - -;
#X floatatom 169 243 5 0 0 0 - - -;
#X obj 225 180 == 10;
#X obj 225 126 int;
#X obj 113 258 outlet;
#X obj 225 259 outlet;
#X obj 6 29 hsl 128 15 0 10 0 0 \$0-selector empty selector -2 8 0
10 -262144 -1 -1 7700 1;
#X text 55 12 #1↓;
#X text 117 13 #2↓;
#X floatatom 103 49 5 0 0 0 - - -;
#X obj 3 50 int;
#X connect 0 0 5 0;
#X connect 0 0 9 0;
#X connect 1 0 4 0;
#X connect 2 0 1 1;
#X connect 2 0 1 0;
#X connect 3 0 10 0;
#X connect 4 0 11 0;
#X connect 5 0 2 0;
#X connect 6 0 8 0;
#X connect 7 0 6 1;
#X connect 7 0 6 0;
#X connect 8 0 12 0;
#X connect 9 0 7 0;
#X connect 10 0 0 0;
#X connect 13 0 17 0;
#X connect 17 0 16 0;
#X coords 0 -1 1 1 140 70 1 0 0;
