#N canvas 616 210 594 438 10;
#X obj 117 20 line~;
#X floatatom 117 -6 5 0 0 0 - - -;
#X obj 147 -41 0;
#X obj 117 -41 1;
#X obj 6 -43 outlet;
#X obj 57 51 outlet~;
#X obj 147 -84 delay 150;
#X obj 76 -127 bng 15 250 50 0 empty empty note_1 17 7 0 10 -262144
-1 -1;
#X obj 323 18 line~;
#X floatatom 323 -8 5 0 0 0 - - -;
#X obj 353 -43 0;
#X obj 323 -43 1;
#X obj 212 -45 outlet;
#X obj 263 49 outlet~;
#X obj 353 -86 delay 150;
#X obj 282 -129 bng 15 250 50 0 empty empty note_2 17 7 0 10 -262144
-1 -1;
#X obj 76 -152 inlet;
#X obj 282 -155 inlet;
#X connect 0 0 5 0;
#X connect 1 0 0 0;
#X connect 2 0 1 0;
#X connect 3 0 1 0;
#X connect 6 0 2 0;
#X connect 7 0 4 0;
#X connect 7 0 1 0;
#X connect 7 0 3 0;
#X connect 7 0 6 0;
#X connect 8 0 13 0;
#X connect 9 0 8 0;
#X connect 10 0 9 0;
#X connect 11 0 9 0;
#X connect 14 0 10 0;
#X connect 15 0 12 0;
#X connect 15 0 9 0;
#X connect 15 0 11 0;
#X connect 15 0 14 0;
#X connect 16 0 7 0;
#X connect 17 0 15 0;
#X coords 0 0 1 1 85 60 0;
