#N canvas 1069 186 450 300 10;
#X obj 103 134 decimate~ 0.5 8;
#X obj 104 100 osc~;
#X obj 228 248 dac~;
#X obj 59 40 vsl 15 128 0 127 0 0 empty empty empty 0 -9 0 10 -262144
-1 -1 0 1;
#X obj 237 141 quantize~;
#X floatatom 256 96 5 0 0 0 - - -;
#X connect 1 0 4 0;
#X connect 3 0 1 0;
#X connect 4 0 2 0;
#X connect 4 0 2 1;
#X connect 5 0 4 0;
