#N canvas 997 466 822 452 10;
#X floatatom 181 270 5 0 0 0 - - #1-selector;
#X obj 68 340 spigot;
#X floatatom 68 318 5 0 0 0 note_1 - -;
#X obj 245 35 hsl 192 23 0 13 0 0 \$0-selector \$0-selector selector
-2 -8 0 10 -262144 -1 -1 19100 0;
#X floatatom 12 357 5 0 0 0 - - -;
#X obj 181 341 spigot;
#X floatatom 181 319 5 0 0 0 note_2 - -;
#X floatatom 125 358 5 0 0 0 - - -;
#X obj 181 246 int;
#X obj 69 373 outlet;
#X obj 181 374 outlet;
#X obj 6 29 hsl 145 15 0 13 0 0 empty \$0-selector selector -2 8 0
10 -262144 -1 -1 0 1;
#X text 165 -2 << This decides the design of the patch in "play-note".
;
#X text -3 178 Outlet is used to send a message to another patch. These
outlets sends a 1 into the "play-short" patch.;
#X floatatom 181 221 5 0 0 0 - #0-selector -;
#X floatatom 68 270 5 0 0 0 - - #1-selector;
#X obj 68 246 int;
#X floatatom 68 221 5 0 0 0 - #0-selector -;
#X floatatom 295 269 5 0 0 0 - - #1-selector;
#X obj 295 340 spigot;
#X floatatom 295 318 5 0 0 0 note_3 - -;
#X floatatom 239 357 5 0 0 0 - - -;
#X obj 295 245 int;
#X obj 295 373 outlet;
#X floatatom 295 220 5 0 0 0 - #0-selector -;
#X floatatom 405 269 5 0 0 0 - - #1-selector;
#X obj 405 340 spigot;
#X floatatom 405 318 5 0 0 0 note_4 - -;
#X floatatom 349 357 5 0 0 0 - - -;
#X obj 405 245 int;
#X obj 405 373 outlet;
#X floatatom 405 220 5 0 0 0 - #0-selector -;
#X floatatom 515 271 5 0 0 0 - - #1-selector;
#X obj 515 342 spigot;
#X floatatom 515 320 5 0 0 0 note_5 - -;
#X floatatom 459 359 5 0 0 0 - - -;
#X obj 515 247 int;
#X obj 515 375 outlet;
#X floatatom 515 222 5 0 0 0 - #0-selector -;
#X text -2 89 The "==" operators decide what value is needed. When
the value from the slider above matches this \, it sends out a 1 \,
which can be seen in the number block.;
#X text -3 128 "spigot" passes or blocks messages going into its left
outlet. When a non-zero value goes into its right inlet \, it sends
the message. Since we want it to send a 1 \, the number block provides
both the message and the send command.;
#X text 448 27 This slider is the selector. It sends a number to the
number block below which is then generated into an int \, which canbe
seen in the number block.;
#X floatatom 624 271 5 0 0 0 - - #1-selector;
#X obj 624 342 spigot;
#X floatatom 624 320 5 0 0 0 note_5 - -;
#X floatatom 568 359 5 0 0 0 - - -;
#X obj 624 247 int;
#X obj 624 375 outlet;
#X floatatom 624 222 5 0 0 0 - #0-selector -;
#X obj 92 6 inlet;
#X obj 68 296 == 1;
#X obj 181 295 == 3;
#X obj 295 294 == 5;
#X obj 405 294 == 7;
#X obj 515 296 == 9;
#X obj 624 296 == 11;
#X floatatom 68 50 5 0 0 0 - - #0-selector;
#X connect 1 0 4 0;
#X connect 2 0 1 1;
#X connect 2 0 1 0;
#X connect 4 0 9 0;
#X connect 5 0 7 0;
#X connect 6 0 5 1;
#X connect 6 0 5 0;
#X connect 7 0 10 0;
#X connect 8 0 0 0;
#X connect 8 0 51 0;
#X connect 14 0 8 0;
#X connect 16 0 15 0;
#X connect 16 0 50 0;
#X connect 17 0 16 0;
#X connect 19 0 21 0;
#X connect 20 0 19 1;
#X connect 20 0 19 0;
#X connect 21 0 23 0;
#X connect 22 0 18 0;
#X connect 22 0 52 0;
#X connect 24 0 22 0;
#X connect 26 0 28 0;
#X connect 27 0 26 1;
#X connect 27 0 26 0;
#X connect 28 0 30 0;
#X connect 29 0 25 0;
#X connect 29 0 53 0;
#X connect 31 0 29 0;
#X connect 33 0 35 0;
#X connect 34 0 33 1;
#X connect 34 0 33 0;
#X connect 35 0 37 0;
#X connect 36 0 32 0;
#X connect 36 0 54 0;
#X connect 38 0 36 0;
#X connect 43 0 45 0;
#X connect 44 0 43 1;
#X connect 44 0 43 0;
#X connect 45 0 47 0;
#X connect 46 0 42 0;
#X connect 46 0 55 0;
#X connect 48 0 46 0;
#X connect 49 0 56 0;
#X connect 50 0 2 0;
#X connect 51 0 6 0;
#X connect 52 0 20 0;
#X connect 53 0 27 0;
#X connect 54 0 34 0;
#X connect 55 0 44 0;
#X coords 0 -1 1 1 160 70 1 0 0;
