#N canvas 969 332 971 544 10;
#X obj 75 399 spigot;
#X floatatom 19 416 5 0 0 0 - - -;
#X obj 76 432 outlet;
#X text 4 237 Outlet is used to send a message to another patch. These
outlets sends a 1 into the "play-short" patch.;
#X floatatom 75 330 5 0 0 0 - - #1-selector;
#X obj 75 305 int;
#X floatatom 75 280 5 0 0 0 - #0-selector -;
#X text 5 148 The "==" operators decide what value is needed. When
the value from the slider above matches this \, it sends out a 1 \,
which can be seen in the number block.;
#X text 4 187 "spigot" passes or blocks messages going into its left
outlet. When a non-zero value goes into its right inlet \, it sends
the message. Since we want it to send a 1 \, the number block provides
both the message and the send command.;
#X text 210 94 This slider is the selector. It sends a number to the
number block below which is then generated into an int \, which canbe
seen in the number block.;
#X obj 7 -20 inlet;
#X obj 121 391 spigot;
#X floatatom 123 411 5 0 0 0 - - -;
#X obj 123 432 outlet;
#X obj 75 377 1;
#X obj 121 370 0;
#X obj 75 355 == 1;
#X obj 121 349 != 1;
#X obj 226 400 spigot;
#X floatatom 170 417 5 0 0 0 - - -;
#X obj 227 433 outlet;
#X floatatom 226 331 5 0 0 0 - - #1-selector;
#X obj 226 306 int;
#X floatatom 226 281 5 0 0 0 - #0-selector -;
#X obj 272 392 spigot;
#X floatatom 274 412 5 0 0 0 - - -;
#X obj 274 433 outlet;
#X obj 226 378 1;
#X obj 272 371 0;
#X obj 378 399 spigot;
#X floatatom 322 416 5 0 0 0 - - -;
#X obj 379 432 outlet;
#X floatatom 378 330 5 0 0 0 - - #1-selector;
#X obj 378 305 int;
#X floatatom 378 280 5 0 0 0 - #0-selector -;
#X obj 424 391 spigot;
#X floatatom 426 411 5 0 0 0 - - -;
#X obj 426 432 outlet;
#X obj 378 377 1;
#X obj 424 370 0;
#X obj 679 395 spigot;
#X floatatom 623 412 5 0 0 0 - - -;
#X obj 680 428 outlet;
#X floatatom 679 326 5 0 0 0 - - #1-selector;
#X obj 679 301 int;
#X floatatom 679 276 5 0 0 0 - #0-selector -;
#X obj 725 387 spigot;
#X floatatom 727 407 5 0 0 0 - - -;
#X obj 727 428 outlet;
#X obj 679 373 1;
#X obj 725 366 0;
#X obj 832 393 spigot;
#X floatatom 776 410 5 0 0 0 - - -;
#X obj 833 426 outlet;
#X floatatom 832 324 5 0 0 0 - - #1-selector;
#X obj 832 299 int;
#X floatatom 832 274 5 0 0 0 - #0-selector -;
#X obj 878 385 spigot;
#X floatatom 880 405 5 0 0 0 - - -;
#X obj 880 426 outlet;
#X obj 832 371 1;
#X obj 878 364 0;
#X obj 7 34 hradio 25 1 0 8 \$0-selector empty empty 0 -8 0 10 -262144
-1 -1 4;
#X obj 226 356 == 2;
#X obj 272 350 != 2;
#X obj 378 355 == 3;
#X obj 424 349 != 3;
#X obj 679 351 == 5;
#X obj 725 345 != 5;
#X obj 832 349 == 6;
#X obj 878 343 != 6;
#X floatatom 271 38 5 0 0 0 - - -;
#X obj 121 296 bng 15 250 50 0 empty empty empty 17 7 0 10 -262144
-1 -1;
#X obj 272 297 bng 15 250 50 0 empty empty empty 17 7 0 10 -262144
-1 -1;
#X obj 424 296 bng 15 250 50 0 empty empty empty 17 7 0 10 -262144
-1 -1;
#X obj 725 292 bng 15 250 50 0 empty empty empty 17 7 0 10 -262144
-1 -1;
#X obj 878 290 bng 15 250 50 0 empty empty empty 17 7 0 10 -262144
-1 -1;
#X obj 527 401 spigot;
#X floatatom 471 418 5 0 0 0 - - -;
#X obj 528 434 outlet;
#X floatatom 527 332 5 0 0 0 - - #1-selector;
#X obj 527 307 int;
#X floatatom 527 282 5 0 0 0 - #0-selector -;
#X obj 573 393 spigot;
#X floatatom 575 413 5 0 0 0 - - -;
#X obj 575 434 outlet;
#X obj 527 379 1;
#X obj 573 372 0;
#X obj 573 298 bng 15 250 50 0 empty empty empty 17 7 0 10 -262144
-1 -1;
#X obj 527 357 == 4;
#X obj 573 351 != 4;
#X connect 0 0 1 0;
#X connect 1 0 2 0;
#X connect 5 0 4 0;
#X connect 5 0 16 0;
#X connect 5 0 17 0;
#X connect 6 0 5 0;
#X connect 6 0 72 0;
#X connect 10 0 62 0;
#X connect 11 0 12 0;
#X connect 12 0 13 0;
#X connect 14 0 0 0;
#X connect 15 0 11 0;
#X connect 16 0 14 0;
#X connect 16 0 0 1;
#X connect 17 0 15 0;
#X connect 17 0 11 1;
#X connect 18 0 19 0;
#X connect 19 0 20 0;
#X connect 22 0 21 0;
#X connect 22 0 63 0;
#X connect 22 0 64 0;
#X connect 23 0 22 0;
#X connect 23 0 73 0;
#X connect 24 0 25 0;
#X connect 25 0 26 0;
#X connect 27 0 18 0;
#X connect 28 0 24 0;
#X connect 29 0 30 0;
#X connect 30 0 31 0;
#X connect 33 0 32 0;
#X connect 33 0 65 0;
#X connect 33 0 66 0;
#X connect 34 0 33 0;
#X connect 34 0 74 0;
#X connect 35 0 36 0;
#X connect 36 0 37 0;
#X connect 38 0 29 0;
#X connect 39 0 35 0;
#X connect 40 0 41 0;
#X connect 41 0 42 0;
#X connect 44 0 43 0;
#X connect 44 0 67 0;
#X connect 44 0 68 0;
#X connect 45 0 44 0;
#X connect 45 0 75 0;
#X connect 46 0 47 0;
#X connect 47 0 48 0;
#X connect 49 0 40 0;
#X connect 50 0 46 0;
#X connect 51 0 52 0;
#X connect 52 0 53 0;
#X connect 55 0 54 0;
#X connect 55 0 69 0;
#X connect 55 0 70 0;
#X connect 56 0 55 0;
#X connect 56 0 76 0;
#X connect 57 0 58 0;
#X connect 58 0 59 0;
#X connect 60 0 51 0;
#X connect 61 0 57 0;
#X connect 62 0 71 0;
#X connect 63 0 27 0;
#X connect 63 0 18 1;
#X connect 64 0 28 0;
#X connect 64 0 24 1;
#X connect 65 0 38 0;
#X connect 65 0 29 1;
#X connect 66 0 39 0;
#X connect 66 0 35 1;
#X connect 67 0 49 0;
#X connect 67 0 40 1;
#X connect 68 0 50 0;
#X connect 68 0 46 1;
#X connect 69 0 60 0;
#X connect 69 0 51 1;
#X connect 70 0 61 0;
#X connect 70 0 57 1;
#X connect 72 0 16 0;
#X connect 72 0 17 0;
#X connect 73 0 64 0;
#X connect 73 0 63 0;
#X connect 74 0 66 0;
#X connect 74 0 65 0;
#X connect 75 0 68 0;
#X connect 75 0 67 0;
#X connect 76 0 70 0;
#X connect 76 0 69 0;
#X connect 77 0 78 0;
#X connect 78 0 79 0;
#X connect 81 0 80 0;
#X connect 81 0 89 0;
#X connect 81 0 90 0;
#X connect 82 0 81 0;
#X connect 82 0 88 0;
#X connect 83 0 84 0;
#X connect 84 0 85 0;
#X connect 86 0 77 0;
#X connect 87 0 83 0;
#X connect 88 0 89 0;
#X connect 88 0 90 0;
#X connect 89 0 86 0;
#X connect 89 0 77 1;
#X connect 90 0 87 0;
#X connect 90 0 83 1;
#X coords 0 -1 1 1 404 70 1 0 0;
