#N canvas 971 203 521 389 10;
#X obj 151 45 line~;
#X floatatom 151 19 5 0 0 0 - - -;
#X obj 181 -16 0;
#X obj 151 -16 1;
#X obj 110 -102 bng 15 250 50 0 empty empty note_3 17 7 0 10 -262144
-1 -1;
#X floatatom 26 -35 5 0 0 2 frequency - -;
#X obj 26 96 *~;
#X obj 101 68 metro 100;
#X obj 203 53 tgl 15 0 empty empty empty 17 7 0 10 -262144 -1 -1 0
1;
#X obj 181 -59 delay 150;
#X obj 26 -15 phasor~ 0;
#X obj 26 7 -~ 0.99;
#X obj 25 31 clip~ 0 1;
#X obj 25 55 *~ 100;
#X obj 26 -74 inlet;
#X obj 26 165 outlet~;
#X obj 101 123 outlet;
#X obj 110 -125 inlet;
#X obj 26 141 quantize~;
#X obj 36 122 inlet;
#X obj 325 -50 bng 15 250 50 0 empty empty empty 17 7 0 10 -262144
-1 -1;
#X obj 289 -11 1;
#X obj 325 -12 0;
#X obj 289 20 metro 500;
#X obj 325 -70 inlet;
#X obj 303 81 metro 100;
#X obj 371 66 tgl 15 0 empty empty empty 17 7 0 10 -262144 -1 -1 0
1;
#X obj 303 107 outlet;
#X obj 289 50 tgl 15 0 empty empty empty 17 7 0 10 -262144 -1 -1 0
1;
#X obj 255 36 bng 15 250 50 0 empty empty empty 17 7 0 10 -262144 -1
-1;
#X obj 263 79 line~;
#X connect 1 0 0 0;
#X connect 2 0 1 0;
#X connect 2 0 8 0;
#X connect 3 0 1 0;
#X connect 3 0 8 0;
#X connect 4 0 5 0;
#X connect 4 0 21 0;
#X connect 5 0 10 0;
#X connect 6 0 18 0;
#X connect 7 0 16 0;
#X connect 8 0 7 0;
#X connect 9 0 2 0;
#X connect 10 0 11 0;
#X connect 11 0 12 0;
#X connect 12 0 13 0;
#X connect 13 0 6 0;
#X connect 14 0 5 0;
#X connect 17 0 4 0;
#X connect 18 0 15 0;
#X connect 19 0 18 0;
#X connect 20 0 22 0;
#X connect 21 0 23 0;
#X connect 21 0 26 0;
#X connect 22 0 23 0;
#X connect 22 0 26 0;
#X connect 22 0 28 0;
#X connect 23 0 28 0;
#X connect 23 0 29 0;
#X connect 24 0 20 0;
#X connect 25 0 27 0;
#X connect 26 0 25 0;
#X connect 28 0 30 0;
#X connect 30 0 6 1;
