#N canvas 1110 363 633 451 10;
#X obj 77 120 phasor~;
#X obj 77 151 cos~;
#X obj 196 50 0;
#X obj 166 50 1;
#X obj 139 3 bng 15 250 50 0 empty empty note_1 17 7 0 10 -262144 -1
-1;
#X obj 139 -22 inlet;
#X floatatom 77 95 5 0 0 2 frequency - -;
#X obj 166 80 tgl 15 0 empty empty empty 17 7 0 10 -262144 -1 -1 0
1;
#X obj 77 58 inlet;
#X obj 196 -22 inlet;
#X obj 196 4 bng 15 250 50 0 empty empty empty 17 7 0 10 -262144 -1
-1;
#X obj 76 175 *~;
#X obj 130 181 metro 100;
#X obj 76 250 outlet~;
#X obj 130 207 outlet;
#X obj 77 227 quantize~;
#X obj 87 208 inlet;
#X connect 0 0 1 0;
#X connect 1 0 11 0;
#X connect 2 0 7 0;
#X connect 3 0 7 0;
#X connect 4 0 3 0;
#X connect 4 0 6 0;
#X connect 5 0 4 0;
#X connect 6 0 0 0;
#X connect 7 0 11 1;
#X connect 7 0 12 0;
#X connect 8 0 6 0;
#X connect 9 0 10 0;
#X connect 10 0 2 0;
#X connect 11 0 15 0;
#X connect 12 0 14 0;
#X connect 15 0 13 0;
#X connect 16 0 15 0;
