#N canvas 505 261 705 465 10;
#X obj 103 97 phasor~;
#X obj 102 147 *~ 2;
#X obj 102 172 -~ 1;
#X obj 103 121 expr~ $v1 > 0.01;
#X obj 187 4 bng 15 250 50 0 empty empty note_3 17 7 0 10 -262144 -1
-1;
#X floatatom 103 71 5 0 0 2 frequency - -;
#X obj 103 32 inlet;
#X obj 187 -19 inlet;
#X obj 251 52 0;
#X obj 221 52 1;
#X obj 221 82 tgl 15 0 empty empty empty 17 7 0 10 -262144 -1 -1 0
1;
#X obj 251 -20 inlet;
#X obj 251 6 bng 15 250 50 0 empty empty empty 17 7 0 10 -262144 -1
-1;
#X obj 102 197 *~;
#X obj 177 169 metro 100;
#X obj 102 266 outlet~;
#X obj 177 224 outlet;
#X obj 102 242 quantize~;
#X obj 112 223 inlet;
#X connect 0 0 3 0;
#X connect 1 0 2 0;
#X connect 2 0 13 0;
#X connect 3 0 1 0;
#X connect 4 0 5 0;
#X connect 4 0 9 0;
#X connect 5 0 0 0;
#X connect 6 0 5 0;
#X connect 7 0 4 0;
#X connect 8 0 10 0;
#X connect 9 0 10 0;
#X connect 10 0 13 1;
#X connect 10 0 14 0;
#X connect 11 0 12 0;
#X connect 12 0 8 0;
#X connect 13 0 17 0;
#X connect 14 0 16 0;
#X connect 17 0 15 0;
#X connect 18 0 17 0;
