#N canvas 814 314 598 477 10;
#X obj 156 247 line~;
#X floatatom 156 221 5 0 0 0 - - -;
#X obj 186 186 0;
#X obj 156 186 1;
#X obj 115 100 bng 15 250 50 0 empty empty note_2 17 7 0 10 -262144
-1 -1;
#X obj 115 75 inlet;
#X floatatom 53 192 5 0 0 2 frequency - -;
#X obj 52 264 *~;
#X obj 106 270 metro 100;
#X obj 208 255 tgl 15 0 empty empty empty 17 7 0 10 -262144 -1 -1 0
1;
#X obj 186 143 delay 150;
#X obj 53 215 phasor~ 0;
#X obj 53 153 inlet;
#X obj 51 344 outlet~;
#X obj 106 296 outlet;
#X obj 51 317 quantize~;
#X obj 61 298 inlet;
#X obj 322 118 bng 15 250 50 0 empty empty empty 17 7 0 10 -262144
-1 -1;
#X obj 286 157 1;
#X obj 322 156 0;
#X obj 286 188 metro 500;
#X obj 322 98 inlet;
#X obj 300 249 metro 100;
#X obj 368 234 tgl 15 0 empty empty empty 17 7 0 10 -262144 -1 -1 0
1;
#X obj 300 275 outlet;
#X obj 286 218 tgl 15 0 empty empty empty 17 7 0 10 -262144 -1 -1 0
1;
#X obj 252 204 bng 15 250 50 0 empty empty empty 17 7 0 10 -262144
-1 -1;
#X obj 260 247 line~;
#X connect 1 0 0 0;
#X connect 2 0 1 0;
#X connect 2 0 9 0;
#X connect 3 0 1 0;
#X connect 3 0 9 0;
#X connect 4 0 6 0;
#X connect 4 0 18 0;
#X connect 5 0 4 0;
#X connect 6 0 11 0;
#X connect 7 0 15 0;
#X connect 8 0 14 0;
#X connect 9 0 8 0;
#X connect 10 0 2 0;
#X connect 11 0 7 0;
#X connect 12 0 6 0;
#X connect 15 0 13 0;
#X connect 16 0 15 0;
#X connect 17 0 19 0;
#X connect 18 0 20 0;
#X connect 18 0 23 0;
#X connect 19 0 20 0;
#X connect 19 0 23 0;
#X connect 19 0 25 0;
#X connect 20 0 25 0;
#X connect 20 0 26 0;
#X connect 21 0 17 0;
#X connect 22 0 24 0;
#X connect 23 0 22 0;
#X connect 25 0 27 0;
#X connect 27 0 7 1;
