#N canvas 281 357 765 516 10;
#X obj 178 13 0;
#X obj 148 13 1;
#X obj 121 -34 bng 15 250 50 0 empty empty note_1 17 7 0 10 -262144
-1 -1;
#X obj 121 -59 inlet;
#X floatatom 59 58 5 0 0 2 frequency - -;
#X obj 58 130 *~;
#X obj 59 83 osc~ 0;
#X obj 112 136 metro 100;
#X obj 148 43 tgl 15 0 empty empty empty 17 7 0 10 -262144 -1 -1 0
1;
#X text 13 -98 This inlet is from the choose-note patch. It receives
either a 1 or a 0 When it receives a one the bang activates.;
#X text 20 230 All these blocks here determines how long the note plays.
Playing a note can be controlled by multiplying the frequency with
0 or 1 Here \, by default \, the note doesn't play \, because it receives
a zero. The "line~" provides a smoother transition from min to max.
When the bang activates it first sends a 1 - this activates the note.
It also activates a delay - the number is milliseconds. This delay
waits some time and then it sends a 0 \, which deactivates the note.
This way to note played for a small amount of time. The bang also activates
and deactivates a metro which writes the wave produced to the tables
on the left.;
#X obj 59 21 inlet;
#X obj 58 205 outlet~;
#X obj 112 162 outlet;
#X obj 59 182 quantize~;
#X obj 69 163 inlet;
#X obj 443 -19 bng 15 250 50 0 empty empty empty 17 7 0 10 -262144
-1 -1;
#X obj 407 20 1;
#X obj 443 19 0;
#X obj 407 51 metro 500;
#X obj 421 112 metro 100;
#X obj 489 97 tgl 15 0 empty empty empty 17 7 0 10 -262144 -1 -1 0
1;
#X obj 407 81 tgl 15 0 empty empty empty 17 7 0 10 -262144 -1 -1 0
1;
#X obj 373 67 bng 15 250 50 0 empty empty empty 17 7 0 10 -262144 -1
-1;
#X obj 381 110 line~;
#X obj 178 -59 inlet;
#X obj 178 -33 bng 15 250 50 0 empty empty empty 17 7 0 10 -262144
-1 -1;
#X obj 272 97 line~;
#X floatatom 272 71 5 0 0 0 - - -;
#X obj 302 36 0;
#X obj 272 36 1;
#X obj 324 105 tgl 15 0 empty empty empty 17 7 0 10 -262144 -1 -1 0
1;
#X obj 302 -7 delay 150;
#X text 279 -32 Short burst;
#X text 392 -38 Continous short burst;
#X connect 0 0 8 0;
#X connect 1 0 8 0;
#X connect 2 0 1 0;
#X connect 2 0 4 0;
#X connect 3 0 2 0;
#X connect 4 0 6 0;
#X connect 5 0 14 0;
#X connect 6 0 5 0;
#X connect 7 0 13 0;
#X connect 8 0 5 1;
#X connect 8 0 7 0;
#X connect 11 0 4 0;
#X connect 14 0 12 0;
#X connect 15 0 14 0;
#X connect 16 0 18 0;
#X connect 17 0 19 0;
#X connect 17 0 21 0;
#X connect 18 0 19 0;
#X connect 18 0 21 0;
#X connect 18 0 22 0;
#X connect 19 0 22 0;
#X connect 19 0 23 0;
#X connect 21 0 20 0;
#X connect 22 0 24 0;
#X connect 25 0 26 0;
#X connect 26 0 0 0;
#X connect 28 0 27 0;
#X connect 29 0 28 0;
#X connect 29 0 31 0;
#X connect 30 0 28 0;
#X connect 30 0 31 0;
#X connect 32 0 29 0;
