#N canvas 776 215 591 569 10;
#X obj 213 195 line~;
#X floatatom 213 169 5 0 0 0 - - -;
#X obj 243 134 0;
#X obj 213 134 1;
#X obj 172 48 bng 15 250 50 0 empty empty note_3 17 7 0 10 -262144
-1 -1;
#X floatatom 88 115 5 0 0 2 frequency - -;
#X obj 163 218 metro 100;
#X obj 265 203 tgl 15 0 empty empty empty 17 7 0 10 -262144 -1 -1 0
1;
#X obj 243 91 delay 150;
#X obj 18 179 phasor~ 0;
#X obj 88 138 * -1;
#X obj 81 178 phasor~ 0;
#X msg 123 138 0;
#X obj 67 294 *~ 0.7;
#X obj 67 318 *~;
#X obj 17 203 *~ 2;
#X obj 17 226 -~ 1;
#X obj 17 247 clip~ 0 1;
#X obj 81 201 *~ 2;
#X obj 81 224 -~ 1;
#X obj 81 245 clip~ 0 1;
#X obj 67 270 +~;
#X obj 172 27 inlet;
#X obj 88 79 inlet;
#X obj 67 380 outlet~;
#X obj 163 344 outlet;
#X obj 67 360 quantize~;
#X obj 91 339 inlet;
#X obj 372 108 bng 15 250 50 0 empty empty empty 17 7 0 10 -262144
-1 -1;
#X obj 336 147 1;
#X obj 372 146 0;
#X obj 336 178 metro 500;
#X obj 372 88 inlet;
#X obj 350 239 metro 100;
#X obj 418 224 tgl 15 0 empty empty empty 17 7 0 10 -262144 -1 -1 0
1;
#X obj 350 343 outlet;
#X obj 336 208 tgl 15 0 empty empty empty 17 7 0 10 -262144 -1 -1 0
1;
#X obj 302 194 bng 15 250 50 0 empty empty empty 17 7 0 10 -262144
-1 -1;
#X obj 310 237 line~;
#X connect 1 0 0 0;
#X connect 2 0 1 0;
#X connect 2 0 7 0;
#X connect 3 0 1 0;
#X connect 3 0 7 0;
#X connect 4 0 5 0;
#X connect 4 0 29 0;
#X connect 5 0 9 0;
#X connect 5 0 10 0;
#X connect 6 0 25 0;
#X connect 7 0 6 0;
#X connect 8 0 2 0;
#X connect 9 0 15 0;
#X connect 10 0 11 0;
#X connect 11 0 18 0;
#X connect 12 0 9 1;
#X connect 12 0 11 1;
#X connect 13 0 14 0;
#X connect 14 0 26 0;
#X connect 15 0 16 0;
#X connect 16 0 17 0;
#X connect 17 0 21 0;
#X connect 18 0 19 0;
#X connect 19 0 20 0;
#X connect 20 0 21 1;
#X connect 21 0 13 0;
#X connect 22 0 4 0;
#X connect 23 0 5 0;
#X connect 26 0 24 0;
#X connect 27 0 26 0;
#X connect 28 0 30 0;
#X connect 29 0 31 0;
#X connect 29 0 34 0;
#X connect 30 0 31 0;
#X connect 30 0 34 0;
#X connect 30 0 36 0;
#X connect 31 0 36 0;
#X connect 31 0 37 0;
#X connect 32 0 28 0;
#X connect 33 0 35 0;
#X connect 34 0 33 0;
#X connect 36 0 38 0;
#X connect 38 0 14 1;
