#N canvas 894 286 669 347 10;
#X obj 122 52 bng 15 250 50 0 empty empty note_3 17 7 0 10 -262144
-1 -1;
#X obj 122 27 inlet;
#X floatatom 38 119 5 0 0 2 frequency - -;
#X obj 38 217 *~;
#X obj 113 222 metro 100;
#X obj 38 167 phasor~ 0;
#X obj 38 143 mtof;
#X obj 37 192 expr~ $v1 > $v2;
#X obj 100 135 nbx 5 14 30 100 0 0 empty empty empty 0 -8 0 10 -262144
-1 -1 30 256;
#X obj 100 154 / 100;
#X obj 38 84 inlet;
#X obj 36 283 outlet~;
#X obj 113 246 outlet;
#X obj 37 261 quantize~;
#X obj 47 242 inlet;
#X obj 340 73 bng 15 250 50 0 empty empty empty 17 7 0 10 -262144 -1
-1;
#X obj 304 112 1;
#X obj 340 111 0;
#X obj 304 143 metro 500;
#X obj 318 204 metro 100;
#X obj 386 189 tgl 15 0 empty empty empty 17 7 0 10 -262144 -1 -1 0
1;
#X obj 304 173 tgl 15 0 empty empty empty 17 7 0 10 -262144 -1 -1 0
1;
#X obj 270 159 bng 15 250 50 0 empty empty empty 17 7 0 10 -262144
-1 -1;
#X obj 278 202 line~;
#X obj 197 122 0;
#X obj 167 122 1;
#X obj 167 152 tgl 15 0 empty empty empty 17 7 0 10 -262144 -1 -1 0
1;
#X obj 197 24 inlet;
#X obj 197 50 bng 15 250 50 0 empty empty empty 17 7 0 10 -262144 -1
-1;
#X connect 0 0 2 0;
#X connect 0 0 8 0;
#X connect 0 0 25 0;
#X connect 1 0 0 0;
#X connect 2 0 6 0;
#X connect 3 0 13 0;
#X connect 4 0 12 0;
#X connect 5 0 7 0;
#X connect 6 0 5 0;
#X connect 7 0 3 0;
#X connect 8 0 9 0;
#X connect 9 0 7 1;
#X connect 10 0 2 0;
#X connect 13 0 11 0;
#X connect 14 0 13 0;
#X connect 15 0 17 0;
#X connect 16 0 18 0;
#X connect 16 0 20 0;
#X connect 17 0 18 0;
#X connect 17 0 20 0;
#X connect 17 0 21 0;
#X connect 18 0 21 0;
#X connect 18 0 22 0;
#X connect 20 0 19 0;
#X connect 21 0 23 0;
#X connect 24 0 26 0;
#X connect 25 0 26 0;
#X connect 26 0 3 1;
#X connect 26 0 4 0;
#X connect 27 0 28 0;
#X connect 28 0 24 0;
