#N canvas 451 342 510 421 10;
#X obj 51 142 phasor~;
#X obj 51 166 -~ 0.5;
#X obj 52 190 abs~;
#X obj 51 238 -~ 1;
#X obj 51 214 *~ 4;
#X text 44 380 http://forum.pdpatchrepo.info/topic/6734/making-basic-waveforms-from-a-phasor
;
#X obj 135 52 bng 15 250 50 0 empty empty note_3 17 7 0 10 -262144
-1 -1;
#X floatatom 51 119 5 0 0 2 frequency - -;
#X obj 135 31 inlet;
#X obj 51 83 inlet;
#X obj 205 102 0;
#X obj 175 102 1;
#X obj 175 132 tgl 15 0 empty empty empty 17 7 0 10 -262144 -1 -1 0
1;
#X obj 205 26 inlet;
#X obj 205 52 bng 15 250 50 0 empty empty empty 17 7 0 10 -262144 -1
-1;
#X obj 147 240 metro 100;
#X obj 51 263 *~;
#X obj 51 325 outlet~;
#X obj 147 289 outlet;
#X obj 51 305 quantize~;
#X obj 75 284 inlet;
#X connect 0 0 1 0;
#X connect 1 0 2 0;
#X connect 2 0 4 0;
#X connect 3 0 16 0;
#X connect 4 0 3 0;
#X connect 6 0 7 0;
#X connect 6 0 11 0;
#X connect 7 0 0 0;
#X connect 8 0 6 0;
#X connect 9 0 7 0;
#X connect 10 0 12 0;
#X connect 11 0 12 0;
#X connect 12 0 16 1;
#X connect 12 0 15 0;
#X connect 13 0 14 0;
#X connect 14 0 10 0;
#X connect 15 0 18 0;
#X connect 16 0 19 0;
#X connect 19 0 17 0;
#X connect 20 0 19 0;
