#N canvas 768 446 824 472 10;
#X obj 76 355 output~;
#X obj 135 293 phasor~;
#X obj 76 288 osc~;
#X floatatom 169 137 5 0 0 0 - - -;
#X msg 172 71 1;
#X floatatom 45 255 5 0 0 0 - - -;
#X floatatom 187 262 5 0 0 0 - - -;
#X msg 133 70 0;
#X msg 82 134 400;
#X obj 97 97 bng 15 250 50 0 empty empty empty 17 7 0 10 -262144 -1
-1;
#X msg 78 202 0;
#X msg 145 216 0;
#X msg 215 73 2;
#X obj 82 163 demultiplex 0 1 2;
#X msg 190 203 0;
#X obj 327 222 hradio 15 1 0 3 empty empty empty 0 -8 0 10 -262144
-1 -1 1;
#X msg 344 162 1;
#X msg 305 161 0;
#X msg 387 164 2;
#X obj 327 257 route 0 1 2;
#X obj 278 311 tgl 15 0 empty empty empty 17 7 0 10 -262144 -1 -1 0
1;
#X obj 349 336 tgl 15 0 empty empty empty 17 7 0 10 -262144 -1 -1 0
1;
#X obj 412 322 tgl 15 0 empty empty empty 17 7 0 10 -262144 -1 -1 0
1;
#X floatatom 265 238 5 0 0 0 - - -;
#X obj 327 301 bng 15 250 50 0 empty empty empty 17 7 0 10 -262144
-1 -1;
#X obj 361 301 bng 15 250 50 0 empty empty empty 17 7 0 10 -262144
-1 -1;
#X obj 406 289 bng 15 250 50 0 empty empty empty 17 7 0 10 -262144
-1 -1;
#X text 304 123 change the value in the note-chooser;
#X text 27 35 add an effect to a note \, when a specific value from
the gyroscope is received;
#X connect 1 0 0 0;
#X connect 1 0 0 1;
#X connect 2 0 0 0;
#X connect 2 0 0 1;
#X connect 3 0 13 1;
#X connect 4 0 3 0;
#X connect 4 0 9 0;
#X connect 5 0 2 0;
#X connect 6 0 1 0;
#X connect 7 0 3 0;
#X connect 7 0 9 0;
#X connect 8 0 13 0;
#X connect 9 0 8 0;
#X connect 10 0 5 0;
#X connect 11 0 6 0;
#X connect 12 0 3 0;
#X connect 12 0 9 0;
#X connect 13 0 5 0;
#X connect 13 0 11 0;
#X connect 13 1 6 0;
#X connect 13 1 10 0;
#X connect 13 2 14 0;
#X connect 14 0 6 0;
#X connect 14 0 5 0;
#X connect 15 0 23 0;
#X connect 16 0 15 0;
#X connect 17 0 15 0;
#X connect 18 0 15 0;
#X connect 19 0 20 0;
#X connect 19 0 24 0;
#X connect 19 1 21 0;
#X connect 19 1 25 0;
#X connect 19 2 22 0;
#X connect 19 2 26 0;
#X connect 23 0 19 0;
