#N canvas 239 233 489 493 10;
#X obj -5 127 synth;
#X floatatom -4 68 5 0 0 0 - - -;
#X floatatom 46 67 5 0 0 0 - - -;
#X obj -30 13 OSCroute /freq /selector;
#X obj -31 -29 inlet;
#X obj -6 169 outlet~;
#X connect 0 0 5 0;
#X connect 1 0 0 1;
#X connect 2 0 0 0;
#X connect 3 0 1 0;
#X connect 3 1 2 0;
#X connect 4 0 3 0;
