#N canvas 239 233 489 493 10;
#X obj -6 117 synth;
#X floatatom -30 68 5 0 0 0 - - -;
#X floatatom 40 68 5 0 0 0 - - -;
#X obj -30 13 OSCroute /freq /selector;
#X obj -30 -19 inlet note-string;
#X obj -6 149 outlet~ backtrack;
#X connect 0 0 5 0;
#X connect 1 0 0 1;
#X connect 2 0 0 0;
#X connect 3 0 1 0;
#X connect 3 1 2 0;
#X connect 4 0 3 0;
