#N canvas 638 461 717 356 10;
#X obj -68 -171 netreceive 17435;
#X obj -129 -143 print tcp;
#X floatatom 25 -140 5 0 0 0 - - -;
#X obj -130 -43 dsp;
#X obj -130 -78 tgl 30 0 empty empty ON-OFF 0 -7 0 10 -262144 -1 -1
0 1;
#X obj 52 93 dac~;
#X obj -130 -111 OSCroute /dsp /ch1 /ch2 /ch3 /ch4 /ch5;
#X obj -82 -43 channels;
#X obj -16 -43 channels;
#X obj 53 -43 channels;
#X obj 123 -43 channels;
#X obj 190 -43 channels;
#X obj 172 31 *~ 0.1;
#X connect 0 0 1 0;
#X connect 0 0 6 0;
#X connect 0 1 2 0;
#X connect 4 0 3 0;
#X connect 6 0 4 0;
#X connect 6 1 7 0;
#X connect 6 2 8 0;
#X connect 6 3 9 0;
#X connect 6 4 10 0;
#X connect 6 5 11 0;
#X connect 7 0 5 1;
#X connect 7 0 5 0;
#X connect 8 0 12 0;
#X connect 9 0 12 0;
#X connect 10 0 12 0;
#X connect 11 0 12 0;
#X connect 12 0 5 1;
#X connect 12 0 5 0;
