#N canvas 783 175 717 722 10;
#X obj 11 -168 netreceive 17435;
#X obj -101 -151 print tcp;
#X floatatom 104 -137 5 0 0 0 - - -;
#X obj -106 254 dsp;
#X obj -106 219 tgl 30 0 empty empty ON-OFF 0 -7 0 10 -262144 -1 -1
0 1;
#X obj 80 376 dac~;
#X obj 110 169 channels;
#X obj 17 167 channels;
#X obj 186 170 channels;
#X obj 261 170 channels;
#X obj 336 170 channels;
#X obj 97 -9 symbol2list +;
#X obj 87 87 symbol2list -;
#X obj 82 25 unpack s s s;
#X obj 200 -9 symbol2list +;
#X obj 190 87 symbol2list -;
#X obj 185 25 unpack s s s;
#X obj 312 -11 symbol2list +;
#X obj 302 85 symbol2list -;
#X obj 297 23 unpack s s s;
#X obj 415 -11 symbol2list +;
#X obj 405 85 symbol2list -;
#X obj 400 23 unpack s s s;
#X obj 96 -64 unpack s s s s s;
#X obj 3 -11 symbol2list +;
#X obj -7 85 symbol2list -;
#X obj -12 23 unpack s s s;
#X obj 11 -115 route /dsp;
#X obj 200 314 *~ 0.5;
#X connect 0 0 1 0;
#X connect 0 0 27 0;
#X connect 0 1 2 0;
#X connect 4 0 3 0;
#X connect 6 0 28 0;
#X connect 7 0 5 1;
#X connect 7 0 5 0;
#X connect 8 0 28 0;
#X connect 9 0 28 0;
#X connect 10 0 28 0;
#X connect 11 0 13 0;
#X connect 12 0 6 0;
#X connect 13 1 12 0;
#X connect 13 2 12 0;
#X connect 14 0 16 0;
#X connect 15 0 8 0;
#X connect 16 1 15 0;
#X connect 16 2 15 0;
#X connect 17 0 19 0;
#X connect 18 0 9 0;
#X connect 19 1 18 0;
#X connect 19 2 18 0;
#X connect 20 0 22 0;
#X connect 21 0 10 0;
#X connect 22 1 21 0;
#X connect 22 2 21 0;
#X connect 23 0 24 0;
#X connect 23 1 11 0;
#X connect 23 2 14 0;
#X connect 23 3 17 0;
#X connect 23 4 20 0;
#X connect 24 0 26 0;
#X connect 25 0 7 0;
#X connect 26 1 25 0;
#X connect 26 2 25 0;
#X connect 27 0 4 0;
#X connect 27 1 23 0;
#X connect 28 0 5 1;
#X connect 28 0 5 0;
