#N canvas 0 0 760 585 10;
#X msg 125 165 set \$1 \$2;
#X obj 125 139 pack f f;
#X obj 125 109 i;
#X msg 207 107 0;
#X obj 65 49 t b i b b b b;
#X obj 65 8 inlet;
#X obj 109 231 outlet;
#X floatatom 19 11 5 0 0 0 - - -;
#X msg 109 195 4 0;
#X obj -5 -164 key;
#X floatatom -2 -139 5 0 0 0 - - -;
#X msg -12 -45 1;
#X msg 18 -45 2;
#X msg 50 -46 3;
#X msg 80 -47 4;
#X msg 110 -47 5;
#X msg 143 -47 6;
#X msg 170 -45 7;
#X msg 202 -45 8;
#X msg 234 -45 9;
#X obj 5 -91 select 49 50 51 52 53 54 55 56 57 48;
#X msg 269 -44 0;
#X text 60 -151 press 0-9;
#X floatatom 170 108 5 0 0 0 - - -;
#X connect 0 0 8 0;
#X connect 1 0 0 0;
#X connect 2 0 1 0;
#X connect 3 0 1 1;
#X connect 4 0 8 0;
#X connect 4 1 2 0;
#X connect 4 2 23 0;
#X connect 4 3 8 0;
#X connect 4 4 2 0;
#X connect 4 5 3 0;
#X connect 5 0 4 0;
#X connect 7 0 4 0;
#X connect 7 0 23 0;
#X connect 8 0 6 0;
#X connect 9 0 10 0;
#X connect 10 0 20 0;
#X connect 11 0 7 0;
#X connect 12 0 7 0;
#X connect 13 0 7 0;
#X connect 14 0 7 0;
#X connect 15 0 7 0;
#X connect 16 0 7 0;
#X connect 17 0 7 0;
#X connect 18 0 7 0;
#X connect 19 0 7 0;
#X connect 20 0 11 0;
#X connect 20 1 12 0;
#X connect 20 2 13 0;
#X connect 20 3 14 0;
#X connect 20 4 15 0;
#X connect 20 5 16 0;
#X connect 20 6 17 0;
#X connect 20 7 18 0;
#X connect 20 8 19 0;
#X connect 20 9 21 0;
#X connect 21 0 7 0;
#X connect 23 0 1 1;
