#N canvas 1110 363 196 263 10;
#X obj 77 120 phasor~;
#X obj 77 151 cos~;
#X floatatom 77 95 5 0 0 2 frequency - -;
#X obj 77 209 outlet~;
#X obj 77 58 inlet freq;
#X connect 0 0 1 0;
#X connect 1 0 3 0;
#X connect 2 0 0 0;
#X connect 4 0 2 0;
