#N canvas 1110 363 633 451 10;
#X obj 77 120 phasor~;
#X obj 77 151 cos~;
#X floatatom 77 95 5 0 0 2 frequency - -;
#X obj 77 58 inlet;
#X obj 77 209 outlet~;
#X connect 0 0 1 0;
#X connect 1 0 4 0;
#X connect 2 0 0 0;
#X connect 3 0 2 0;
