#N canvas 250 23 1031 803 10;
#X obj -25 -103 hsl 128 15 0 1200 0 0 empty \$0-freq Frequency 0 7
0 10 -262144 -1 -1 6216 1;
#X obj -28 -31 s-cosine-wave;
#X obj 0 -10 s-sawtooth-wave;
#X obj 59 41 s-square-wave;
#X obj 29 17 s-triangle-wave;
#X obj -58 -45 vradio 15 1 0 5 empty \$0-wave Pitch 0 -8 0 10 -262144
-1 -1 0;
#X obj -58 72 multiplex~ . . . . .;
#X obj -55 153 quantize~ 4;
#X obj -59 -155 inlet;
#X obj -15 -154 inlet;
#X obj -55 202 outlet~;
#X connect 0 0 1 0;
#X connect 0 0 2 0;
#X connect 0 0 4 0;
#X connect 0 0 3 0;
#X connect 1 0 6 1;
#X connect 2 0 6 2;
#X connect 3 0 6 4;
#X connect 4 0 6 3;
#X connect 5 0 6 0;
#X connect 6 0 7 0;
#X connect 7 0 10 0;
#X connect 8 0 5 0;
#X connect 9 0 0 0;
#X coords 0 803 1 802 600 210 0;
