#N canvas 102 41 1031 887 10;
#X obj 146 259 hsl 128 15 0 800 0 0 empty \$0-freq Frequency 0 7 0
10 -262144 -1 -1 4568 1;
#X obj 143 331 s-cosine-wave;
#X obj 171 352 s-sawtooth-wave;
#X obj 230 403 s-square-wave;
#X obj 200 379 s-triangle-wave;
#X obj 113 317 vradio 15 1 0 5 empty \$0-wave Pitch 0 -8 0 10 -262144
-1 -1 0;
#X obj 113 434 multiplex~ . . . . .;
#X obj 113 472 demultiplex~ . . .;
#X obj 69 427 vradio 15 1 0 3 empty \$0-filter Filter 0 -8 0 10 -262144
-1 -1 2;
#X obj -75 268 dsp;
#X obj -75 45 tgl 30 0 \$0-on empty Turn_on 0 -7 0 10 -257985 -1 -1
1 1;
#X obj -16 45 hsl 140 30 0 800 0 0 \$0-freq empty Frequency 5 10 0
14 -257985 -1 -1 5000 0;
#X obj 155 636 tabwrite~ Wave;
#N canvas 0 0 450 300 (subpatch) 0;
#X array Wave 100 float 1;
#A 0 0 0 0 0 0 0 0 0 0 0 0 0 0 0 0 0 0 0 0 0 0 0 0 0 0 0 0 0 0 0 0
0 0 0 0 0 0 0 0 0 0 0 0 0 0 0 0 0 0 0 0 0 0 0 0 0 0 0 0 0 0 0 0 0 0
0 0 0 0 0 0 0 0 0 0 0 0 0 0 0 0 0 0 0 0 0 0 0 0 0 0 0 0 0 0 0 0 0 0
0;
#X coords 0 1 99 -1 200 140 1;
#X restore -74 93 graph;
#X obj 112 590 multiplex~ . . .;
#X obj 113 636 dac~;
#X obj 219 591 tgl 15 0 empty \$0-on empty 17 7 0 10 -262144 -1 -1
1 1;
#X obj 219 610 metro 100;
#X obj 138 35 cnv 15 150 200 empty empty Waveforms 20 12 0 14 -233017
-66577 0;
#X obj 295 35 cnv 15 200 200 empty empty Filters 20 12 0 14 -233017
-66577 0;
#X obj 166 522 lop~;
#X obj 228 543 sig~;
#X obj 219 565 vcf~;
#X floatatom 263 549 5 0 10 1 Resonance #0-bpresonance -;
#X obj 231 523 hsl 128 15 1000 5000 0 0 empty \$0-bpcenter Center_frequency
0 7 0 10 -262144 -1 -1 12700 1;
#X obj 190 502 hsl 128 15 0 2000 0 0 empty \$0-lopcutoff Cutoff 0 7
0 10 -262144 -1 -1 6799 1;
#X obj 302 65 cnv 15 180 50 empty empty empty 20 12 0 14 -191407 -66577
0;
#X obj 302 120 cnv 15 180 50 empty empty empty 20 12 0 14 -191407 -66577
0;
#X obj 343 79 hsl 100 30 0 2000 0 0 \$0-lopcutoff empty Cutoff 0 7
0 10 -257985 -1 -1 5300 1;
#X obj 343 134 hsl 100 30 1000 5000 0 0 \$0-bpcenter empty Center_frequency
0 7 0 10 -257985 -1 -1 9900 1;
#X obj 448 136 vsl 30 30 0 10 0 0 \$0-bpresonance empty Resonance 0
-9 0 10 -257985 -1 -1 800 1;
#X obj 158 67 tgl 30 0 \$0-wave empty Sine_(1) 0 -7 0 10 -257985 -1
-1 0 1;
#X obj 158 201 tgl 30 0 \$0-wave empty Sawtooth_(4) 0 -7 0 10 -257985
-1 -1 0 4;
#X obj 158 113 tgl 30 0 \$0-wave empty Triangle_(2) 0 -7 0 10 -257985
-1 -1 0 2;
#X obj 158 157 tgl 30 0 \$0-wave empty Square_(3) 0 -7 0 10 -257985
-1 -1 0 3;
#X obj 306 79 tgl 30 0 \$0-filter empty Low_pass 0 -7 0 10 -257985
-1 -1 0 1;
#X obj 306 134 tgl 30 0 \$0-filter empty Bandpass 0 -7 0 10 -257985
-1 -1 2 2;
#X text 533 61 2 program own filters 3 add ADSR to filters 4 find out
what filters 5 play more than one note at a time;
#X msg 648 243 10 \$0;
#X obj 662 150 *~;
#X obj 703 312 line~;
#X msg 703 274 1 2500;
#X msg 757 274 0 500;
#X msg 703 227 stop;
#X obj 703 251 del \$0;
#X obj 678 122 adsr 1 100 200 50 300;
#X obj -21 -38 key;
#X obj -21 -18 sel 49 50 51 52;
#X msg -21 6 1;
#X msg 11 6 2;
#X msg 44 6 3;
#X msg 77 6 4;
#X obj 110 -37 keyup;
#X obj 110 -16 sel 49 50 51 52;
#X msg 110 6 0;
#X connect 0 0 1 0;
#X connect 0 0 2 0;
#X connect 0 0 4 0;
#X connect 0 0 3 0;
#X connect 1 0 6 1;
#X connect 2 0 6 2;
#X connect 3 0 6 4;
#X connect 4 0 6 3;
#X connect 5 0 6 0;
#X connect 6 0 7 0;
#X connect 7 0 14 0;
#X connect 7 1 20 0;
#X connect 7 2 22 0;
#X connect 8 0 7 0;
#X connect 8 0 14 0;
#X connect 10 0 9 0;
#X connect 14 0 15 0;
#X connect 14 0 15 1;
#X connect 14 0 12 0;
#X connect 16 0 17 0;
#X connect 17 0 12 0;
#X connect 20 0 14 1;
#X connect 21 0 22 1;
#X connect 22 0 14 2;
#X connect 23 0 22 2;
#X connect 24 0 21 0;
#X connect 25 0 20 1;
#X connect 38 0 40 0;
#X connect 41 0 40 0;
#X connect 42 0 40 0;
#X connect 43 0 44 0;
#X connect 44 0 41 0;
#X connect 45 0 39 1;
#X connect 46 0 47 0;
#X connect 47 0 48 0;
#X connect 47 1 49 0;
#X connect 47 2 50 0;
#X connect 47 3 51 0;
#X connect 48 0 31 0;
#X connect 49 0 33 0;
#X connect 50 0 34 0;
#X connect 51 0 32 0;
#X connect 52 0 53 0;
#X connect 53 0 54 0;
#X connect 53 1 54 0;
#X connect 53 2 54 0;
#X connect 53 3 54 0;
#X connect 53 4 54 0;
#X connect 54 0 31 0;
#X connect 54 0 33 0;
#X connect 54 0 34 0;
#X connect 54 0 32 0;
#X coords 0 -1 1 1 600 210 2 -80 30;
