#N canvas 417 131 246 332 10;
#X obj -25 -574 hsl 128 15 0 1200 0 0 empty \$0-freq Frequency 0 7
0 10 -262144 -1 -1 0 1;
#X obj -28 -502 s-cosine-wave;
#X obj 0 -481 s-sawtooth-wave;
#X obj 59 -438 s-square-wave;
#X obj 29 -459 s-triangle-wave;
#X obj -58 -516 vradio 15 1 0 5 empty \$0-wave Pitch 0 -8 0 10 -262144
-1 -1 0;
#X obj -58 -399 multiplex~ . . . . .;
#X obj -57 -368 quantize~ 4;
#X obj -58 -626 inlet wave;
#X obj 15 -626 inlet freq;
#X obj -57 -338 outlet~ note;
#X connect 0 0 1 0;
#X connect 0 0 2 0;
#X connect 0 0 4 0;
#X connect 0 0 3 0;
#X connect 1 0 6 1;
#X connect 2 0 6 2;
#X connect 3 0 6 4;
#X connect 4 0 6 3;
#X connect 5 0 6 0;
#X connect 6 0 7 0;
#X connect 7 0 10 0;
#X connect 8 0 5 0;
#X connect 9 0 0 0;
#X coords 0 332 1 331 600 210 0;
